<?xml version="1.0" standalone="no"?>
<!DOCTYPE svg PUBLIC "-//W3C//DTD SVG 1.1//EN" "http://www.w3.org/Graphics/SVG/1.1/DTD/svg11.dtd" >
<svg xmlns="http://www.w3.org/2000/svg">
<metadata>
Created by FontForge 20120731 at Thu Feb 16 16:20:51 2017
 By admin
</metadata>
<defs>
<font id="iconfont" horiz-adv-x="1024" >
  <font-face 
    font-family="iconfont"
    font-weight="500"
    font-stretch="normal"
    units-per-em="1024"
    panose-1="2 0 6 3 0 0 0 0 0 0"
    ascent="896"
    descent="-128"
    x-height="792"
    bbox="-0.285714 -200 1033.6 896.128"
    underline-thickness="0"
    underline-position="0"
    unicode-range="U+0078-E728"
  />
<missing-glyph 
 />
    <glyph glyph-name=".notdef" 
 />
    <glyph glyph-name=".notdef" 
 />
    <glyph glyph-name=".null" horiz-adv-x="0" 
 />
    <glyph glyph-name="nonmarkingreturn" horiz-adv-x="341" 
 />
    <glyph glyph-name="x" unicode="x" horiz-adv-x="1001" 
d="M281 543q-27 -1 -53 -1h-83q-18 0 -36.5 -6t-32.5 -18.5t-23 -32t-9 -45.5v-76h912v41q0 16 -0.5 30t-0.5 18q0 13 -5 29t-17 29.5t-31.5 22.5t-49.5 9h-133v-97h-438v97zM955 310v-52q0 -23 0.5 -52t0.5 -58t-10.5 -47.5t-26 -30t-33 -16t-31.5 -4.5q-14 -1 -29.5 -0.5
t-29.5 0.5h-32l-45 128h-439l-44 -128h-29h-34q-20 0 -45 1q-25 0 -41 9.5t-25.5 23t-13.5 29.5t-4 30v167h911zM163 247q-12 0 -21 -8.5t-9 -21.5t9 -21.5t21 -8.5q13 0 22 8.5t9 21.5t-9 21.5t-22 8.5zM316 123q-8 -26 -14 -48q-5 -19 -10.5 -37t-7.5 -25t-3 -15t1 -14.5
t9.5 -10.5t21.5 -4h37h67h81h80h64h36q23 0 34 12t2 38q-5 13 -9.5 30.5t-9.5 34.5q-5 19 -11 39h-368zM336 498v228q0 11 2.5 23t10 21.5t20.5 15.5t34 6h188q31 0 51.5 -14.5t20.5 -52.5v-227h-327z" />
    <glyph glyph-name="tuichu" unicode="&#xe601;" horiz-adv-x="1000" 
d="M1000 365l-191 -176v114h-314v124h314v114zM674 759h-576l307 -130v-616h269v248h45v-290h-314v-171l-405 171v829h719v-332h-45v291v0zM674 759z" />
    <glyph glyph-name="niunai" unicode="&#xe656;" 
d="M888 443l-128 158v125q0 13 -10 22.5t-24 9.5h-419q-14 0 -24 -9.5t-10 -22.5v-124l-135 -147q-8 -9 -8 -21v-564q0 -13 10 -22.5t24 -9.5h697q14 0 24 9.5t10 22.5v554q0 11 -7 19zM691 694v-85h-350v85h350zM198 415h276q9 0 15 5.5t6 13.5t-6 13.5t-15 5.5h-247
l106 116l0.5 0.5t0.5 1.5h351l-110 -127q-7 -9 -7 -20v-522h-370v513v0zM826 -98h-190v511l99 113l91 -113v-511z" />
    <glyph glyph-name="bbgjinkouniunai" unicode="&#xe693;" 
d="M812 669q0 25 -17.5 42.5t-42.5 17.5h-480q-25 0 -42.5 -17.5t-17.5 -42.5v-120h600v120zM212 489l-120 -180v-420q0 -25 17.5 -42.5t42.5 -17.5h480v510v1v0v1q1 12 9 21l129 127h-558zM829 463l-137 -136v-498h180q25 0 42.5 17.5t17.5 42.5v420z" />
    <glyph glyph-name="shipinxian" unicode="&#xe65d;" 
d="M820 753q-14 11 -31 2l-721 -403q-1 0 -2 -1t-1 -1.5t-1 -1t-1.5 -1l-1 -1l-0.5 -0.5q-2 -2 -4 -5q-1 -3 -2 -5t-1 -6l-0.5 -1t-0.5 -2v-399q0 -11 8 -19.5t19 -9.5l860 -58h2q11 0 20 8q9 9 9 21v402q0 103 -15.5 190t-35 136.5t-45 88.5t-36.5 50t-19 16zM111 296
l802 -50v-144l-802 51v143zM799 695q15 -17 30.5 -43t35 -72t33 -118.5t15.5 -158.5l-732 46zM111 -45v140l802 -51v-143zM668 510h57q12 0 20.5 8t8.5 20t-8.5 20.5t-20.5 8.5h-57q-12 0 -20.5 -8.5t-8.5 -20.5t8.5 -20t20.5 -8zM512 391h57q12 0 20.5 8.5t8.5 20.5
t-8.5 20.5t-20.5 8.5h-57q-12 0 -20.5 -8.5t-8.5 -20.5t8.5 -20.5t20.5 -8.5zM700 420q0 -12 8.5 -20.5t20.5 -8.5h57q12 0 20.5 8.5t8.5 20.5t-8.5 20.5t-20.5 8.5h-57q-12 0 -20.5 -8.5t-8.5 -20.5z" />
    <glyph glyph-name="quxiao01" unicode="&#xe61a;" 
d="M928 273q0 -114 -56 -210t-152 -151.5t-209 -54.5q-114 1 -209.5 57t-151 151.5t-54.5 208.5q0 114 56.5 210t152 151t208.5 54q114 0 209.5 -56t151 -152t54.5 -208zM439 274l-9 -8q-62 -62 -104 -103q-17 -17 1 -35l39 -39q18 -18 37 0l54 54l48 48l7 7q7 -6 7 -7
l45.5 -45.5l57.5 -57.5q18 -17 35 0q8 8 39 38q19 20 0 39q-16 16 -50.5 50t-51.5 52q-1 0 -8 8l8 5l102 102q19 19 0 38l-38 38q-18 18 -37 -0.5t-53.5 -53l-49.5 -49.5l-7 -7l-6 7q-65 65 -103 104q-18 17 -35 0l-39 -39q-19 -19 0 -38l102 -102z" />
    <glyph glyph-name="bianji" unicode="&#xe632;" 
d="M768 -45h-504q-35 0 -59.5 25t-24.5 59v505q0 35 25 61.5t59 26.5h339v-42h-339q-17 0 -29.5 -14t-12.5 -32v-505q0 -17 12 -29.5t30 -12.5h504q18 0 32 13t14 30v338h42v-338q0 -35 -26.5 -60t-61.5 -25zM517 159q-8 -8 -22 -11l-184 -91q-15 -7 -25 3.5t-5 26.5l91 184
q3 14 11 22l327 327q12 12 29.5 12t29.5 -12l75 -74q12 -13 12 -30.5t-12 -29.5zM322 112q-4 -7 1.5 -12.5t12.5 -1.5l114 68l-60 60zM428 248l44 -44l15 -15l238 238l-75 73l-237 -237l7 -7zM799 531l-45 44q-6 6 -14.5 6t-14.5 -6l-44 -43l73 -76l45 45q6 6 6 15t-6 15z
" />
    <glyph glyph-name="zhu" unicode="&#xe639;" 
d="M529 14l-11 112q-42 -1 -82 3q39 -86 41 -104q0 -4 -3.5 -12t-8 -15.5t-8 -14.5t-3.5 -12t6 -6q14 -5 28.5 -3t23 4t9.5 3q0 6 -2 18q-4 30 2 30q3 1 8 -3v0zM288 582l10 2l15 2q-3 2 -13 9.5t-15.5 11t-15.5 9t-21.5 10t-25.5 8.5q-29 8 -57 10q9 -38 11 -46
q7 -3 19 -7.5t19.5 -6.5t19 -4.5t25 -1.5t29.5 4zM1013 587l5 10h-10q-5 -2 -6 -4l-1 -1q-21 4 -33 -16q-12 2 -22 -1q-20 -6 -20 -36q-5 6 -10 10q-24 28 -54 36q-273 65 -546 0l-10 -4q-53 -10 -71 -6t-53 11.5t-76 3.5q-33 -3 -63 -13q1 -2 7.5 -13t8 -13t6.5 -10.5
t7 -11t7 -9.5t8.5 -11t8.5 -10l10 -12q9 -9 19.5 -18.5t24 -21t19.5 -17.5q-11 8 -36 22.5t-31 18.5q-54 -56 -83 -66q-3 5 -7 5q-10 0 -10 -12v-67h71q-13 -12 -33 -22q36 -12 63 -14q1 0 2.5 -0.5t2.5 -0.5q23 -58 67 -69q12 -3 31 -10t46 -18t41 -17q6 -3 11 -5
q62 -117 66 -153q0 -4 -5 -13.5t-11 -19t-11 -19.5t-5.5 -16t7.5 -9q10 -3 28.5 0t30 6.5t13.5 4.5q-2 41 -1 44q3 10 17 1l-13 149q138 -20 276 -7q18 -18 42 -30q39 -20 74 -17q-1 -21 -5.5 -43.5t-8.5 -35.5l-4 -13q-3 -1 -6.5 -4t-11.5 -10t-13.5 -13t-11.5 -14.5
t-5 -13t4 -9.5q4 -3 10.5 -4.5t13 -2t14 -1t14 0t11.5 1t8.5 1l3.5 0.5q2 5 3.5 12t2.5 11.5t3.5 9t6.5 3.5t11 -3l57 168q1 6 -2.5 9.5t-7.5 5.5t-6 10.5t1 24.5q23 16 39.5 42.5t20.5 55.5q15 46 15 100q0 63 -20 113l1 1q-5 17 -7 37q-1 15 2 26q3 15 17 5q-5 -11 -4 -25
t13 -12q26 3 20 27q-3 10 -11 15q3 8 8 14q2 3 9 -4q-5 -10 -2 -17.5t14 -4.5q12 2 12.5 12t-8.5 16zM974 551l2 -6q0 -2 -1 -5q-1 4 -1 11z" />
    <glyph glyph-name="chakan" unicode="&#xe622;" 
d="M222 604h374l91 -91v-106h33v123v0l-107 107v0v0h-391h-33v-33v-559v-41h33h168v41h-168v559zM313 485h256v-33h-256v33zM318 333h106v-33h-106v33zM318 180h77v-33h-77v33zM737 82q43 51 43 111q0 68 -48 116.5t-116.5 48.5t-116.5 -48.5t-48 -116.5t48 -116.5
t117 -48.5q51 0 101 35l97 -99l20 21zM615.5 56q-53.5 0 -95 41.5t-41.5 95t41.5 95.5t95 42t95.5 -42t42 -95.5t-42 -95t-95.5 -41.5z" />
    <glyph glyph-name="xiannai" unicode="&#xe64b;" 
d="M861 441v2t-1 4q0 1 -1 2q-1 3 -2 5v0l-86 123v81q0 33 -23.5 57t-57.5 24h-356q-34 0 -57.5 -24t-23.5 -57v-81l-86 -123v0q-1 -2 -2 -5q-1 -1 -1 -2q-1 -2 -1 -4v-2v0v-1v-455q0 -51 36.5 -87.5t87.5 -36.5h450q51 0 87.5 36.5t36.5 87.5v455v1v0zM210 417h604v-377
h-604v377zM334 692h356q14 0 24 -10t10 -24v-65h-424v65q0 14 10 24t24 10zM289 546h446l57 -82h-560zM737 -92h-450q-32 0 -54.5 22.5t-22.5 54.5v8h604v-8q0 -32 -22.5 -54.5t-54.5 -22.5z" />
    <glyph glyph-name="shanchu" unicode="&#xe60e;" 
d="M814 509h-604q-6 0 -10 4.5t-4 10.5t4 10.5t10 4.5h604q6 0 10 -4.5t4 -10.5t-4 -10.5t-10 -4.5v0zM601 515q-6 32 -31.5 52.5t-57.5 20.5t-57.5 -20.5t-31.5 -52.5l-29 6q9 42 42 69t76 27t76 -27t42 -69l-29 -6v0zM708 -51h-392q-17 0 -29.5 12.5t-13.5 30.5l-30 504
q-1 6 3 10.5t10 4.5t10.5 -4t5.5 -10l30 -503q0 -7 4.5 -11.5t9.5 -4.5h392q5 0 9.5 4.5t4.5 11.5l30 503q1 6 5.5 10t10.5 4t10 -4.5t3 -10.5l-30 -504q-1 -18 -13.5 -30.5t-29.5 -12.5v0zM402 56q-6 0 -10 4t-5 10l-19 346q0 6 4 10.5t9.5 5t10.5 -3.5t5 -10l19 -347
q1 -6 -3 -10.5t-10 -4.5h-1v0zM622 56h-1q-6 0 -10 4.5t-3 10.5l19 347q0 6 4.5 10t10.5 3.5t10 -5t4 -10.5l-19 -346q-1 -6 -5 -10t-10 -4v0zM512 56q-6 0 -10.5 4t-4.5 10v347q0 6 4.5 10t10.5 4t10.5 -4t4.5 -10v-347q0 -6 -4.5 -10t-10.5 -4v0z" />
    <glyph glyph-name="xiaomeijibaozhuang" unicode="&#xe612;" 
d="M71 712h877v-236h-18h-18v-293v-294h-805v294v293h-18h-18v73.5v90v72.5v0zM123 661v-140h386h387v140h-773v0zM158 476v-535h703v267.5v267.5h-703v0zM355 417q8 2 20 2h125.5h125.5q31 1 51 -23q13 -14 15.5 -35t-7.5 -38q-15 -29 -48 -34q-6 -1 -25 -1h-228
q-24 0 -34 3q-26 8 -39 33q-15 30 0 59q14 28 44 34v0zM376 380q-11 -1 -18.5 -10t-5.5 -19q1 -10 9 -17t18 -7h118.5h118.5q15 0 23 9q7 8 6.5 18.5t-7.5 17.5q-8 9 -24 8h-119h-119v0zM376 380z" />
    <glyph glyph-name="jinkuai" unicode="&#xe626;" 
d="M1013 345l-85 118q-5 8 -14 9l-42 8l-42 -38l40 -7l-267 -240l-40 7l-18 -16q-3 -3 -6 -4q-14 -10 -32 -10q-5 0 -9 1l-107 18l-71 -117q-7 -10 -2 -20.5t17 -12.5l297 -53h4q9 0 15 6l5 4h1l353 317q15 14 3 30zM375 79l61 101l149 -27l23 -115zM650 52l-21 107l281 253
l55 -77zM275 203l21 -103l34 56l-9 48l-121 21q-29 5 -41 32t3 52l23 37l-84 -76h-1v0v-1h-1v0q0 -1 -1 -1v-1h-1v-1l-0.5 -0.5l-0.5 -0.5l-86 -141q-6 -10 -1 -21t16 -13l261 -46q-8 23 4 45l-225 39l62 101zM206 258l297 -53h4q9 0 15 6l5 4h1l353 317q14 13 3 30l-85 118
q-5 8 -14 9l-170 30v0l-7 1h-4q-8 0 -15 -5l-308 -277v0l-1 -1v0v-0.5t-1 -0.5v0v0v0v-1h-1v-1v0l-0.5 -0.5t-0.5 -1.5l-86 -141q-7 -10 -2 -21q5 -10 17 -12zM836 552l-315 -283l-21 107l281 252zM611 675l130 -23l-267 -240l-129 23zM307 397l149 -27l23 -115l-233 41z
" />
    <glyph glyph-name="baozhuang" unicode="&#xe60f;" 
d="M706 488q-21 25 -55 24h-136.5h-136.5q-13 0 -21 -1q-33 -8 -48 -37q-17 -33 0 -65q14 -27 42 -35q11 -4 37 -4h247q21 0 28 1q35 5 52 37q11 19 8.5 41.5t-17.5 38.5zM665 423q-8 -11 -25 -10h-128.5h-128.5q-11 -1 -20 6.5t-10 18.5q-2 12 6.5 21.5t19.5 10.5h130h129
q17 1 26 -8q8 -8 8 -19.5t-7 -19.5zM932 831h-839v-79.5v-97.5v-79h20h20v-319v-318h379.5h379.5v318v319h20h20v79v97.5v79.5zM845 -15h-666v590h9h657v-295v-295zM885 623h-372h-373v63v68v29h745v-160z" />
    <glyph glyph-name="add_dianhua" unicode="&#xe62f;" 
d="M517.5 753q-101.5 0 -188 -50.5t-137 -137t-50.5 -188.5t50.5 -188.5t137 -137t188 -50.5t188 50.5t137 137t50.5 188.5t-50.5 188.5t-137 137t-188 50.5zM517.5 25q-95.5 0 -176.5 47.5t-128 128.5t-47 176t47 176t128 128.5t176.5 47.5t176.5 -47.5t128 -128.5t47 -176
t-47 -176t-128 -128.5t-176.5 -47.5zM636 316q-3 5 -8 6.5t-10 -1.5q-31 -21 -47 -26t-25.5 0t-26.5 24q-27 29 -48 79q-20 47 -14 59q10 20 66 51q10 5 5 15l-67 136q-3 4 -7.5 5.5t-9.5 -0.5q-48 -27 -78 -63q-38 -47 -35 -103q3 -64 38 -142q38 -87 104 -167
q50 -61 118 -61q15 0 31 3q43 8 74 32q7 6 3 14zM617 154q-73 -14 -126 50q-66 80 -99.5 159t-36.5 136q-5 82 90 138l57 -114q-55 -32 -67 -55q-10 -22 14 -79q23 -54 52 -86q31 -34 55 -35t64 26l53 -117q-27 -17 -56 -23z" />
    <glyph glyph-name="niunai1" unicode="&#xe638;" 
d="M265 58q0 -45 24.5 -77t58.5 -32h328q34 0 58.5 32t24.5 77v393h-494v-393zM750 596q-38 41 -61 87h28q10 0 15.5 7.5t5.5 19.5v82q0 12 -5.5 19.5t-15.5 7.5h-410q-10 0 -15.5 -7.5t-5.5 -19.5v-82q0 -12 5.5 -19.5t15.5 -7.5h28q-27 -53 -61 -87q-9 -7 -9 -22v-65h494
v65q0 15 -9 22z" />
    <glyph glyph-name="gouwuche" unicode="&#xe63f;" 
d="M246 -16q0 28 20 47.5t47.5 19.5t47.5 -19.5t20 -47.5t-20 -47.5t-47.5 -19.5t-47.5 19.5t-20 47.5zM717 -16q0 28 19.5 47.5t47.5 19.5t47.5 -19.5t19.5 -47.5t-19.5 -47.5t-47.5 -19.5t-47.5 19.5t-19.5 47.5zM906 131h-538q-21 0 -40 16.5t-24 38.5l-96 566
q-7 41 -40.5 68.5t-74.5 27.5h-23q-9 0 -17 -8t-8 -17.5t8 -17.5t17 -8h23q21 0 40 -16.5t24 -38.5l96 -566q7 -41 40.5 -68.5t74.5 -27.5h538q9 0 17 8t8 18t-7 17.5t-18 7.5zM880 717h-573q-9 0 -17 -8t-8 -17.5t8 -17.5t17 -8h573q19 0 28 -11.5t4 -30.5l-70 -282
q-5 -23 -27 -40.5t-47 -19.5l-397 -29q-10 0 -17.5 -8.5t-4.5 -20.5q0 -10 8.5 -17.5t20.5 -4.5l396 28q41 3 75 32t44 68l70 281q10 41 -15 73.5t-68 32.5z" />
    <glyph glyph-name="gouwuchetianjia" unicode="&#xe640;" 
d="M803 0zM739 0q0 26 19 45t45.5 19t45 -19t18.5 -45t-18.5 -45t-45 -19t-45.5 19t-19 45zM346 0zM282 0q0 26 18.5 45t45 19t45.5 -19t19 -45t-19 -45t-45.5 -19t-45 19t-18.5 45zM774 778q-81 0 -139.5 -58.5t-58.5 -140t58.5 -140t140 -58.5t140 58.5t58.5 139.5
q2 82 -56.5 140.5t-142.5 58.5zM774 432q-62 0 -106 43.5t-44 103.5q0 62 44 104.5t106 42.5q63 0 107 -43.5t44 -103.5q0 -62 -44 -104.5t-107 -42.5zM368 246q0 -9 8 -15.5t18 -6.5l492 42q10 0 16.5 7.5t6.5 17.5t-8 16.5t-18 6.5l-493 -42q-10 0 -17 -7t-5 -19zM845 605
h-48v48q0 10 -7 17.5t-19 7.5q-25 0 -25 -25v-48h-48q-11 0 -18.5 -7t-7.5 -19q0 -10 7 -17.5t19 -7.5h48v-48q0 -11 7 -18.5t18 -7.5q26 0 26 26v48h48q10 0 17.5 7t7.5 18q-2 11 -9 18.5t-16 7.5zM330 704h188q11 0 18.5 7t7.5 19q0 10 -7 17.5t-19 7.5h-188
q-11 0 -18.5 -7t-7.5 -18.5t7.5 -18.5t18.5 -7zM886 154h-524q-21 0 -40 15.5t-24 35.5l-93 547q-7 39 -39.5 66t-72.5 27h-23q-10 0 -17.5 -7t-7.5 -19q0 -10 7 -17.5t18 -7.5h23q22 0 40.5 -15t23.5 -37l93 -547q7 -39 39 -66t73 -27h524q11 0 18.5 7.5t7.5 18.5
q0 10 -8 18t-18 8z" />
    <glyph glyph-name="jushoucang" unicode="&#xe643;" 
d="M909 682q-10 12 -29 32q-159 163 -342 16q-10 -7 -29 -26q-5 5 -14.5 13t-14.5 13q-187 144 -342 -16q-20 -20 -26 -32q-66 -96 -67.5 -194t51 -188t154.5 -178q77 -67 137 -103q32 -19 45 -29q14 -9 19 -9l13 -7q2 -1 7.5 -3t8.5 -3q18 -5 44.5 -2t45.5 15q6 0 16 9
q23 12 44 29q61 36 138 103q103 90 156.5 180.5t51.5 188t-67 191.5zM736 163q-73 -62 -131 -99q-39 -23 -45 -26q-13 -6 -16 -9q-6 -3 -26 -10h-9h-16h-3v0v0q-4 0 -4 3q-1 0 -4.5 2t-4.5 2q-3 3 -16 9.5t-45 25.5q-78 50 -131 99q-288 257 -131 490q3 4 11 12t11 13
q124 133 275 13q10 -6 23 -19v0l28 -32v0l2 -1l1 -2h1v-1l1 -1l2 -2v0v0v0l1 1l1 2l1 1l1 1h1l1 1l1 1v1l1 1l1 1l1 1l1 1l1 1l1 1l1 1l2 1q25 26 41 39q152 120 276 -13q3 -5 11 -13t11 -13q58 -76 59.5 -159t-46.5 -162.5t-141 -161.5z" />
    <glyph glyph-name="shouye" unicode="&#xe64f;" 
d="M970 394l-119 112l-323 300q-16 16 -32 0l-314 -297q-4 -5 -9 -10l-119 -112q-16 -16 0 -32q8 -7 16.5 -7t15.5 7l84 80v-393q0 -37 27 -63.5t65 -26.5h84q29 0 49.5 19.5t20.5 47.5v218h99h99v-218q0 -26 21 -46.5t50 -20.5h83q39 0 66 26t27 64v396l80 -73q16 -16 32 0
q5 4 4.5 13t-7.5 16zM810 38q0 -19 -13 -31.5t-32 -12.5h-83q-10 0 -16.5 6t-6.5 16v240q0 10 -6.5 16t-15.5 6h-122h-121q-10 0 -16.5 -6t-6.5 -16v-240q0 -10 -6.5 -16t-15.5 -6h-83q-20 0 -32.5 12.5t-12.5 31.5v439l294 281l295 -281v-439z" />
    <glyph glyph-name="shuaxin" unicode="&#xe650;" 
d="M960 266q-20 5 -32 -13q-28 -76 -85.5 -133.5t-131 -87t-158.5 -34t-169 27.5q-83 29 -147 84.5t-98.5 124.5t-42.5 147.5t22 155.5q29 75 86.5 132.5t131 87.5t158.5 34t168 -27q70 -24 128 -68.5t96 -104.5h-92q-10 0 -18 -6.5t-8 -15.5q0 -10 7 -16.5t19 -6.5h153
q10 0 18 6.5t8 16.5v140q0 10 -7 16.5t-19 6.5q-10 0 -17.5 -6.5t-7.5 -16.5v-89q-88 131 -247 189q-93 33 -187.5 28t-176 -38.5t-146.5 -98t-98 -147.5q-25 -68 -26.5 -139.5t21 -137.5t63.5 -123.5t102 -102.5t135 -70q93 -34 187.5 -28.5t176 39t146.5 97.5t98 148
q6 7 3 15.5t-13 13.5z" />
    <glyph glyph-name="sousuo" unicode="&#xe651;" 
d="M966 -29l-230 227q96 107 96 256q0 107 -52.5 197t-142.5 142t-195 52q-107 0 -197 -52.5t-142 -142.5t-52 -196t52.5 -196t142.5 -142t196 -52q149 0 256 96l230 -227q7 -7 19 -7t19 7q10 9 10 20t-10 18zM102 454.5q0 91.5 45 169.5t123.5 124t171.5 46t171 -45.5
t123 -123.5t45 -171q0 -66 -24.5 -126.5t-68.5 -106.5q-2 0 -3.5 -1.5t-2.5 -1.5q-4 -4 -4 -7q-46 -44 -106.5 -68.5t-126.5 -24.5q-93 -1 -172 44t-125 123t-46 169.5z" />
    <glyph glyph-name="tishi" unicode="&#xe653;" 
d="M509 851q-94 0 -180 -36.5t-148.5 -99t-99 -148.5t-36.5 -180t36.5 -180t99 -148t148.5 -99t180 -37t180 37t148 99t99 148t37 180t-37 180t-99 148.5t-148 99t-180 36.5zM508.5 -29q-113.5 0 -209 55.5t-151 151.5t-55.5 209.5t55.5 209t151 151t209 55.5t209.5 -55.5
t151.5 -151t55.5 -209t-55.5 -209.5t-151.5 -151.5t-209.5 -55.5zM521.5 243q9.5 0 16 6.5t6.5 16.5v428q0 10 -6.5 16.5t-16 6.5t-16 -6.5t-6.5 -16.5v-428q-2 -8 5.5 -15.5t17 -7.5zM522 147zM486 147.5q0 14.5 10.5 24.5t25 10t25 -10t10.5 -24.5t-10.5 -25t-25 -10.5
t-25 10.5t-10.5 25z" />
    <glyph glyph-name="wancheng" unicode="&#xe654;" 
d="M486 266q-14 -15 -33.5 -15.5t-33.5 11.5l-137 132l-32 -36l137 -131q29 -26 67.5 -25.5t67.5 28.5l281 298l-35 32zM512 845q-93 0 -178.5 -36.5t-147 -98t-98.5 -147t-37 -179.5t36.5 -179.5t98 -147t147 -98t179.5 -36.5t179.5 36.5t147 98t98 147t36.5 179.5
t-37 179.5t-98.5 147t-147 98t-178.5 36.5zM512 -29q-112 0 -207 55.5t-150.5 150.5t-55.5 207t55.5 207t150.5 150.5t207 55.5t207 -55.5t150.5 -150.5t55.5 -207t-55.5 -207t-150.5 -150.5t-207 -55.5z" />
    <glyph glyph-name="wodejuhuasuan" unicode="&#xe659;" 
d="M621 410q42 29 67.5 75t25.5 97q0 89 -62.5 150.5t-149.5 61.5q-86 0 -148.5 -62.5t-62.5 -149.5q0 -54 26.5 -101.5t69.5 -74.5q-156 -36 -253.5 -150t-85.5 -256v0v0q0 -10 3 -13q3 -5 9 -9t10 -4h880q8 0 14 6.5t9 16.5v0v0v0q9 98 -35.5 186t-128 147t-188.5 80z
M336 585.5q0 67.5 48 115.5t115 48t115 -48t48 -115.5t-48 -115.5t-115 -48t-115 48t-48 115.5zM96 26q-5 94 49.5 174.5t151.5 127t212 46.5h3q115 0 212 -46t152 -126.5t52 -175.5h-832z" />
    <glyph glyph-name="lingshiniunai" unicode="&#xe610;" 
d="M865 498v113v0v2v0v1v0.5v0.5v0q-1 5 -3 10v0l-1 1v0.5v0.5v0.5t-1 0.5v0q-2 5 -6 8h-1l-0.5 0.5l-0.5 0.5v0l-1 1v0l-176 116v79q0 14 -9.5 23t-22.5 9h-288q-13 0 -22.5 -9t-9.5 -23v-80l-151 -116h-1q0 -1 -1 -1l-0.5 -0.5l-0.5 -0.5l-0.5 -0.5l-0.5 -0.5l-1 -1v0
q0 -1 -1 -1v0q0 -1 -1 -1v-1v-1h-1v-1h-1v-1l-0.5 -0.5t-0.5 -1v-1v-0.5q-1 0 -1 -1v0v-1v-1q-1 0 -1 -1v0v-1v-1v-1h-1v-1v-0.5v-1v-1v-1v-0.5v-1v-706q0 -13 9.5 -22.5t22.5 -9.5h642q13 0 22.5 9.5t9.5 22.5v414v0v179v0zM726 643h-168l84 56zM801 579v-66l-318 -263v329
h318zM483 167l318 263v-96l-318 -263v96zM387 801h224v-32h-224v32zM366 705h169l-93 -62h-157zM223 579h196v-397v0v-179v0v-66h-196v642zM483 -63v51l318 263v-314h-318z" />
    <glyph glyph-name="denglu" unicode="&#xe728;" horiz-adv-x="1027" 
d="M991 879h-736q-8 0 -14 -5.5t-6 -14.5v0v-69v-206h90v206h531l-175 -101v-573h-356v221h-90v-221v-53v-12v-8q3 -15 18 -16h4h424v-123v-4q1 -7 6.5 -12.5t13.5 -5.5q4 0 7 1l4 2l286 136l4 2q7 4 9 12v9v72v674v69q0 9 -6 14.5t-14 5.5zM395 314v-5q1 -8 6.5 -13
t13.5 -5q4 0 9 3l6 4l165 132l6 5q5 5 5 13q0 6 -5 12l-6 5l-166 142l-3 3q-5 3 -11 3q-8 0 -13.5 -5t-6.5 -12v-6v-98h-372h-2q-8 -1 -13.5 -6.5t-5.5 -13.5v-50q0 -7 5 -12.5t12 -6.5h6h370v-89z" />
    <glyph glyph-name="quxiao" unicode="&#xe641;" horiz-adv-x="1140" 
d="M474.5 819q-96.5 0 -184.5 -37.5t-151.5 -101t-101 -151t-37.5 -184t37.5 -184.5t101 -151.5t151.5 -101t184.5 -37.5t184 37.5t151 101t101 151.5t37.5 184.5t-37.5 184t-101 151t-151 101t-184 37.5zM522 259v115q-18 0 -30 -0.5t-35 -3.5t-39.5 -8.5t-36.5 -17.5
t-32.5 -28t-21.5 -42t-9 -58q0 -61 37 -108t93 -59q-90 13 -150.5 84.5t-60.5 167.5q0 49 14 88.5t35 64.5t51 43t55.5 26.5t56 13.5t44.5 5.5t29 0.5v98l189 -192z" />
    <glyph glyph-name="egg" unicode="&#xe600;" 
d="M497 839q-60 0 -121 -38t-108 -99.5t-77 -145t-30 -169.5q0 -85 30.5 -159t79 -122.5t107.5 -76.5t118 -28v0h1h1q58 0 117 28t107.5 76.5t79 122.5t30.5 159q0 86 -30 169.5t-77 145t-108 99.5t-120 38v0zM509 29h-13h-1q-39 0 -80.5 14.5t-81 44.5t-71 71.5t-51 100.5
t-19.5 125q0 84 28.5 164t72.5 137t98.5 92t105.5 35q49 0 102 -33t98 -92q50 -64 77 -143.5t27 -159.5t-27.5 -148.5t-71 -111.5t-94 -68t-99.5 -28v0zM273 449l30 -1q5 51 24.5 94t43.5 63l-17 34q-30 -27 -53 -78.5t-28 -111.5v0zM277 420z" />
    <glyph glyph-name="niu" unicode="&#xe6c9;" 
d="M893 187zM492 558zM568 557zM957 579q-19 26 -54.5 46.5t-78.5 25.5q8 27 11 59q2 41 -4 76q-2 12 -11 21t-22 12h-7q-23 0 -35 -20q-15 -25 -36 -47.5t-36 -27.5q-64 40 -153 41h-2h-1.5h-1.5h-2q-89 -1 -153 -41q-15 5 -36 27.5t-36 47.5q-12 20 -35 20h-7
q-13 -3 -22 -12t-11 -21q-13 -72 7 -135q-43 -5 -78.5 -25.5t-54.5 -46.5q-26 -34 -17 -67q10 -31 44.5 -49t85.5 -18q40 0 77 12l35 -259q-1 -4 -6 -16q-19 -45 -19 -75q0 -55 38.5 -90t99.5 -35h90h3h90q61 0 99.5 35t38.5 90q0 30 -19 75q-4 10 -6 16l35 259
q37 -12 77 -12q51 0 85.5 18t44.5 49q9 33 -17 67zM935 524q-6 -18 -31 -28t-60 -10q-66 0 -110 32l-44 -323q1 -5 13.5 -36.5t12.5 -51.5q0 -39 -27.5 -61.5t-69.5 -22.5h-90h-3h-90q-42 0 -69.5 22.5t-27.5 61.5q0 20 12.5 51.5t13.5 36.5l-44 323q-44 -32 -110 -32
q-35 0 -60 10t-31 28q-7 24 36.5 56t102.5 32q23 0 46 -5q-17 15 -28 38t-13.5 45.5t-3 43t1.5 32.5l2 13q2 -4 6 -10.5t17 -23.5t26 -29.5t31 -23t35 -10.5h4q56 42 145 43q88 -1 145 -43h3q26 0 55 24t44 48l16 25q1 -5 2 -13.5t1.5 -31.5t-2.5 -44t-14 -44.5t-28 -38.5
q23 5 46 5q59 0 102.5 -32t36.5 -56zM669 483q0 11 -7.5 19t-19 8t-19 -8t-7.5 -19t7.5 -19t19 -8t19 8t7.5 19zM405 510q-11 0 -19 -8t-8 -19t8 -19t19 -8t19 8t8 19t-8 19t-19 8zM401 144q-11 0 -19 -8t-8 -19t8 -19t19 -8t19 8t8 19t-8 19t-19 8zM654 144q-11 0 -19 -8
t-8 -19t8 -19t19 -8t19 8t8 19t-8 19t-19 8z" />
    <glyph glyph-name="yang" unicode="&#xe614;" 
d="M966 268v-40q-13 -54 -39 -87q-7 -9 -4 -20q9 -45 -8 -79t-63 -45q-7 -2 -9 -7q-6 -18 -30 -21q-9 0 -13 -9q-15 -37 -57 -42q-26 -3 -70 12q-9 2 -12 1q-6 -2 -42 -15h-29q-34 16 -37 17q-9 6 -19 2q-71 -30 -123 16q-4 4 -12 1q-24 -6 -39 9q-10 10 -21 4q-4 -2 -15 -5
q-46 -11 -73 20q-5 6 -32 35q-1 0 -8 7t-9 11q-11 19 -41 33q-47 20 -29 70l1 6q-29 21 -31 23q-19 16 -18 34.5t21 33.5q1 1 11 9q-35 17 -48 54v27q11 24 11 26q22 41 67 73q27 19 28 52q2 80 66 101q5 2 5 6q0 29 29 46q-23 37 -26 41q-6 10 4 17q67 46 128 44q8 -1 13 8
q13 29 23 41q20 27 53 19q10 -3 18 4q21 20 42 12q5 -2 8 2q23 25 61 38h27q43 -12 70 -51q6 -9 17 -7q35 3 58.5 -12.5t26.5 -51.5q1 -6 11 -9q50 -14 55 -61q0 -7 -1.5 -21t-1.5 -17q0 -9 2 -11q37 -39 38 -101q0 -20 16 -31q27 -19 35 -47t-5 -59q-1 -1 -15 -30
q21 -23 35 -76zM836 620q9 21 -2 47q-11 28 -57 36l-3 22q-2 18 -15 30t-30 14q-4 0 -20.5 -1.5t-18.5 2.5q-7 3 -15.5 14.5t-11.5 14.5q-52 51 -109 4l-18 -18q-4 1 -11.5 2t-10 1t-7.5 -1q-16 -13 -56 -16q-6 0 -11 -2t-9.5 -5.5t-7 -6t-6 -9.5t-5 -9.5t-5 -10.5t-4.5 -10
q23 -11 24 -12q12 -8 22 -17q13 -13 11.5 -31.5t-17.5 -27.5q-71 -37 -130 -16q-8 2 -16 -1q-38 -13 -32 -50q-51 -10 -64 -61q-7 -25 -6 -42q1 -24 -20 -38q-50 -35 -71 -74q-29 -54 21 -88q1 -1 22 -13q-22 -14 -23 -15q-29 -23 -3 -49q12 -13 22 -17q18 -7 10 -27
q-12 -30 15 -47q4 -3 9 -5t10.5 -4.5t9.5 -4.5q8 -4 10 -6q9 -10 42 -47q13 -15 15 -17q18 -29 48 -24q4 0 49 12q19 -29 47 -14q4 2 9 -3q48 -48 118 -15q9 4 16 -2q28 -24 63 -17q6 1 22 7t25 6t25.5 -5.5t23.5 -6.5q26 -4 44.5 6t27.5 33q0 1 3 9q23 2 28.5 5.5t9.5 18.5
q13 3 13 4q57 14 63 68q2 20 -2 37q-5 17 8 33q10 14 19 34q34 76 -15 142q-7 11 0 21q22 34 16 66q-4 27 -32 47.5t-58 27.5q-8 2 -25 3.5t-24 2.5q-12 2 -21 10q-5 3 -40 36q16 -70 16 -75q11 -63 1 -114t-50.5 -83.5t-96.5 -33.5q-100 -2 -191 57q-70 45 -63 143
q3 57 61 120q12 14 36.5 35.5t43 41.5t30.5 42v-3q2 -11 3.5 -16.5t7 -11.5t14.5 -5q7 0 14.5 2.5t17 7.5t13.5 6q2 -15 13.5 -17.5t24.5 2.5q8 -33 36 -37q6 -1 11 0t10.5 5t7.5 6t8 10t8 9q-2 -13 -2 -14q2 -37 3 -45q2 -17 15 -15v45q-1 11 10 13q66 15 109 -5zM422 547
q5 -1 6 -1q78 -19 90 -22q1 -1 23 -13q0 -1 -1 -3l-1 -2l-16 2q-11 3 -34 10t-35 11q-29 8 -37.5 5t-22.5 -29q-27 -48 -31 -71q-13 -75 62 -123q76 -49 175 -46q63 1 101 55q23 34 26 90q3 83 -46 176q-3 7 -13 8q-15 1 -24 3t-19.5 8.5t-16.5 18.5q-26 -3 -36 17
q-36 -29 -75 1q-53 -67 -66 -82q0 -1 -9 -13zM842 507q16 2 17 2q13 3 13 6q2 11 -4 16q-38 33 -55 44q-30 20 -65 13q-16 -3 -16 -8q-2 -21 4 -28q41 -44 106 -45zM283 662q29 -30 73.5 -36t78.5 16q-13 21 -39 27q-44 9 -113 -7zM278 683q2 -7 7 -7.5t9 2.5q84 22 147 -6
h12q-26 34 -75.5 37t-99.5 -26zM736 613q1 -2 2.5 -6l1.5 -4q6 3 17 0.5t16 -1.5t15.5 -3t15 -5t14 -6.5t13.5 -7.5t13.5 -8t13.5 -8.5t13.5 -9t13.5 -9.5q-16 41 -60 60t-89 8zM620 -87h-30h-1q-3 2 -11 5q-18 8 -26 13q-6 4 -10 4q-3 0 -7 -2q-28 -13 -54 -13
q-39 0 -72 29q-1 2 -5 2q-2 0 -5 -1q-25 -7 -41 9q-6 6 -10 6t-8 -2t-14 -5h-1q-14 -4 -25 -4q-31 0 -51 24q-7 9 -24 26q-5 6 -8 9l-6 6q-9 8 -12 13q-10 18 -39 31q-49 22 -31 74q1 1 1 4v0q-2 2 -8 6q-15 10 -21 16q-20 17 -19.5 36.5t21.5 35.5l8 6q-33 18 -45 55v0v27
v1q1 2 3 8q5 12 8 18q22 42 67 74q27 18 28 50q2 82 68 104q2 1 3 3q0 29 27 47q-2 3 -6 10q-12 19 -18 28q-7 13 5 21q65 44 123 44h6q7 0 10 8q14 28 24 41q16 21 41 21q7 0 15 -2t15 4q16 15 32 15q6 0 13 -3h1q3 0 4 2q23 26 63 38v0h27q45 -12 72 -51q6 -8 15 -7
q7 1 13 1q33 0 52.5 -17t22.5 -49q0 -5 9 -8q52 -14 56 -63q1 -8 -1 -24q-1 -10 -1 -14q-1 -8 1 -9q38 -40 39 -103q0 -19 15 -29q27 -19 35.5 -48t-5.5 -61q-3 -7 -10 -21q-3 -5 -4 -8q20 -23 34 -76v0v-40q-13 -55 -39 -89q-6 -7 -4 -18q11 -49 -8.5 -82.5t-64.5 -44.5
q-5 -1 -6 -4q-7 -21 -33 -23q-7 -1 -10 -8q-16 -39 -60 -44h-11q-23 0 -60 12q-8 3 -10 2q-11 -4 -31 -11q-7 -3 -11 -5v0zM591 -82h28l10 5q21 7 31 11h4q3 0 10 -2q36 -12 58 -12q5 0 11 1q40 4 55 40q4 10 15 11q22 2 28 19q2 7 10 9q42 10 60.5 41.5t8.5 78.5
q-3 13 5 22q25 33 38 86v39q-14 53 -34 75l-1 2v1q2 3 6 10l10 20q12 30 4.5 57.5t-33.5 45.5q-17 11 -18 33q0 61 -37 99q-3 3 -3 13q1 5 2 14q2 16 1 24q-4 45 -53 58q-12 4 -13 12q-5 62 -69 62q-6 0 -13 -1h-3q-10 0 -16 9q-27 38 -69 49h-25q-38 -12 -60 -37
q-3 -3 -8 -3h-2q-20 8 -41 -11q-6 -6 -13 -6q-3 0 -6 1q-32 8 -51 -18q-10 -12 -23 -40q-5 -10 -16 -10h-5q-57 0 -120 -44q-8 -5 -3 -13q5 -10 17 -29q5 -8 8 -12l1 -2l-2 -2q-27 -15 -27 -43q0 -6 -7 -8q-62 -21 -64 -99q-1 -34 -30 -55q-44 -31 -65 -71q-3 -6 -8 -18
q-2 -5 -3 -8v-25q12 -37 46 -53l4 -2l-15 -11q-19 -15 -19.5 -32t17.5 -32q6 -6 21 -16q6 -4 10 -7l1 -1v-2l-1 -1q0 -3 -1 -5q-17 -47 28 -67q31 -14 42 -34q2 -4 10 -11q5 -4 7 -6q3 -3 8 -9q17 -17 24 -27q19 -21 47 -21q10 0 23 3h2q9 2 13 5q5 3 10 3q7 0 14 -8
q13 -14 36 -8q3 1 6 1q6 0 9 -3q31 -27 68 -27q24 0 52 12q5 2 9 2q6 0 12 -4q9 -5 26 -13q7 -3 11 -5zM599 -59q-28 0 -50 19q-4 3 -7 3q-2 0 -6 -1q-29 -14 -55 -14q-37 0 -66 29q-2 2 -5 2h-1q-10 -5 -19 -5q-17 0 -30 19q-5 -2 -14 -4q-22 -6 -33 -8q-4 -1 -8 -1
q-27 0 -44 26q-2 5 -10 12q-3 4 -4 6l-9 10l-33 36q-1 2 -7 5l-2 1q-4 1 -10 4q-13 6 -19 9q-30 19 -17 51q4 10 2.5 15t-10.5 9q-10 4 -23 17t-12 27t16 26q5 4 15 11q3 1 4 2q-1 1 -3 2l-15 9q-25 17 -31 40.5t9 50.5q21 40 72 75q19 13 18 36q-1 17 6 43q14 51 64 62
q-5 37 34 51q9 3 17 0q22 -7 44 -7q39 0 84 24q14 7 17 23q1 7 -1 14h-4q-2 0 -5 -1q-6 -1 -8 0q-36 16 -76 16q-32 0 -70 -10h-2q-4 -2 -7 -2q-7 0 -9 10l-1 2l2 1q45 26 92 26q57 0 86 -38l1 -2q-2 9 -9 15q-10 9 -21 17q-5 3 -16 8q-5 3 -8 4l-3 1l2 2q1 3 3 8
q6 14 10 21.5t14 16t23 9.5h2q37 2 53 15q3 2 8 2q3 0 11 -1q6 -2 10 -2l3 3q9 10 14 14q27 23 55 23q30 0 58 -27q4 -4 10 -13q10 -13 16 -16q4 -2 11 -2q3 0 11 1q11 1 16 0q18 -1 31.5 -13.5t16.5 -31.5q1 -5 2 -15q0 -3 1 -5q45 -9 57 -38q11 -27 2 -49l-1 -2l-3 1
q-25 12 -54 12q-23 0 -54 -8q-8 -2 -7 -10v-31v-14v-2h-2h-3v0q-14 0 -16 16q-1 12 -2 35q0 7 -1 11q0 2 1 6v0q-20 -25 -36 -25h-5q-29 4 -38 37q-11 -3 -17 -3q-18 0 -21 18q-3 -2 -11 -5q-21 -10 -32 -11q-13 0 -18.5 8.5t-8.5 22.5q-18 -29 -67 -74q-27 -25 -39 -39
q-57 -62 -61 -118q-6 -96 62 -140q88 -57 184 -57h6q55 1 94.5 32.5t49.5 82.5q10 50 0 112q-3 17 -11 52q-4 15 -6 24l-2 8l6 -6q4 -4 12 -11q18 -17 28 -25q9 -7 21 -10q7 -1 22 -2q18 -2 27 -4q29 -7 58 -27.5t34 -49.5q5 -32 -17 -67q-6 -9 1 -18q49 -68 15 -145
q-10 -21 -20 -35q-12 -14 -8 -31q5 -17 3 -37q-7 -56 -65 -71q-3 -1 -10 -2l-1 -0.5l-1 -0.5q-4 -15 -10.5 -19t-27.5 -6v-1l-3 -6q-15 -42 -60 -42q-7 0 -14.5 1t-21.5 6q-18 7 -27 7t-27 -7q-13 -5 -19 -6q-8 -2 -16 -2zM542 -31q5 0 10 -5q28 -23 62 -16q6 1 18 6
q19 7 29 7t29 -7q13 -5 20 -6t14 -1q41 0 55 39l3 6l1 4l2 1q22 1 27 4.5t8 17.5l1 2h1q2 0 4 1q7 1 10 2q54 14 60 67q2 18 -2 35q-4 19 8 36q11 13 20 33q33 75 -15 140q-9 12 -1 24q22 33 17 63q-5 26 -32.5 46t-55.5 27q-9 2 -27 4q-15 1 -22 2q-13 3 -23 11t-29 25
q-2 3 -5 5q1 -5 4 -15q8 -34 11 -52q10 -63 0 -114q-10 -53 -51 -85.5t-98 -34.5h-6q-98 0 -187 58q-70 46 -64 145q4 58 62 122q12 13 39 38q53 48 70 80l4 7l2 -10q2 -17 6.5 -24.5t15.5 -7.5q10 1 30 10l14 7l4 1v-3q2 -17 16 -17q6 0 18 3l3 1l1 -3q7 -31 33 -34
q3 -1 5 -1q14 0 32 23q4 5 6 7l5 7l-1 -9q0 -3 -1 -7v-7v-11q1 -23 2 -34q2 -12 11 -12v11q0 20 -1 30q0 14 12 16q32 8 55 8q29 0 54 -11q6 19 -3 42q-11 27 -55 35h-2v2q-1 3 -1 8q-2 9 -2 14q-3 17 -15 28.5t-29 12.5q-4 1 -15 0q-7 -1 -11 -1q-8 0 -13 2q-8 4 -18 18
q-6 9 -10 12q-26 25 -54 25q-26 0 -51 -21q-6 -4 -14 -13l-4 -4l-1 -1h-1q-4 0 -12 1q-8 2 -10 2q-4 0 -5 -1q-17 -14 -56 -16l-1 -1q-12 0 -21 -7.5t-12.5 -14.5t-9.5 -21q-2 -3 -3 -5l6 -3q12 -5 17 -9q12 -8 22 -17q15 -15 12 -36q-3 -18 -19 -27q-47 -24 -87 -24
q-23 0 -45 7q-7 2 -14 0q-36 -13 -31 -48l1 -2l-3 -1q-49 -9 -62 -58q-7 -25 -6 -42q2 -25 -20 -41q-50 -34 -71 -73q-28 -51 21 -84q4 -3 14 -8q5 -3 8 -4l3 -3l-3 -2q-3 -2 -8 -5q-10 -6 -15 -10q-13 -10 -14 -22t11 -23q12 -12 21 -16q20 -9 11 -31q-11 -28 15 -44
q5 -4 18 -9q7 -3 10 -4q0 -1 2 -1q7 -3 9 -6q11 -12 33 -37l8 -10l5 -5q8 -8 11 -13q17 -27 46 -23q11 2 33 8q10 3 16 4l1 1l1 -2q18 -26 44 -13q1 1 3 1q5 0 8 -4q29 -28 63 -28q24 0 53 13q4 3 8 3zM364 691q42 0 78 -17h5h1q-28 33 -79 33q-44 0 -88 -25q2 -4 4 -4t6 2
h2q38 11 71 11zM590 262q-94 0 -166 46q-77 50 -64 127q4 23 29 67l3 5q10 18 16 24.5t15 6.5q7 0 31 -7v0q12 -3 37 -11q22 -6 32 -9q4 -1 11 -2h3l1 1q-2 1 -5 3q-10 7 -16 8q-21 6 -65 16q-16 4 -25 6l-9 2l2 4q1 1 3 4l6 9q16 19 50 61l18 22l2 -1q19 -15 37 -15
q17 0 35 14l2 2l2 -3q7 -16 25 -16q4 0 7 1h2l1 -2q8 -16 21.5 -21.5t36.5 -7.5q11 -1 15 -8q50 -95 46 -179q-2 -56 -26 -90q-38 -55 -103 -57h-10zM423 533q-7 0 -12 -5.5t-15 -23.5l-2 -4q-25 -44 -28 -66q-13 -74 61 -121q71 -46 163 -46h10q62 2 99 55q23 33 25 88
q4 82 -45 175q-3 5 -11 6q-15 1 -23.5 2.5t-20 8.5t-18.5 20q-3 -1 -6 -1q-20 0 -29 16q-35 -27 -73 1l-15 -18q-33 -41 -50 -62q-2 -2 -5 -8q-1 -1 -2 -1l2 -1q9 -2 25 -6q44 -10 66 -16q6 -2 16 -9q5 -3 7 -4l3 -1l-5 -9h-2q-1 0 -5 1q-7 1 -11 2l-33 9q-24 8 -36 11h-1
q-22 7 -29 7zM842 504v0q-66 2 -108 47q-7 7 -5 29q0 7 18 10q36 8 67 -12q18 -12 50 -40l5 -5q7 -6 6 -18q-1 -5 -15 -8q-5 -2 -14 -2q-3 0 -4 -1v0zM734 580q-1 -20 4 -26q40 -43 104 -44h3q9 1 14 2q9 2 11 4q1 9 -4 13l-5 5q-32 28 -50 39q-29 19 -63 12q-11 -2 -14 -5z
M890 538l-7 5q-3 3 -12 8q-24 17 -37.5 25.5t-36 16.5t-43.5 8q-7 0 -14 -1h-2l-6 15l3 1q16 3 33 3q41 0 73.5 -20t45.5 -53zM754 606q22 0 45 -8t36.5 -16.5t38.5 -25.5q2 -2 5 -3q-15 28 -45 44.5t-66 16.5q-15 0 -28 -3l2 -5h12zM373 622v0q-55 0 -92 39l-3 3l5 1
q44 10 75 10q20 0 39 -4q27 -5 40 -28l1 -2l-2 -1q-27 -18 -63 -18zM288 661q35 -34 85 -34v0q33 0 58 16q-12 18 -35 23q-18 4 -38 4q-29 0 -70 -9zM720 453q-56 21 -60 22q-13 4 -38 8t-27 4q-1 0 -8 5l8 6q29 -2 46 -5q25 -5 54 -13q17 -5 25 -27zM724 449l-5 2
q-7 2 -20 8q-27 10 -40 14q-14 3 -42 8q-15 2 -23 4q-2 0 -6 3q-2 1 -3 2l-3 2l3 2q1 1 3 2q4 5 7 5v0q29 -3 46 -6q25 -5 55 -13q18 -5 26 -28zM591 492q3 -2 4 -2q8 -2 23 -4q28 -4 42 -8t41 -15q9 -3 14 -5q-7 15 -21 19q-29 8 -54 13q-16 3 -45 5q-1 0 -4 -3v0z" />
    <glyph glyph-name="naitongnaiguan" unicode="&#xe602;" 
d="M813 0v0q-7 -41 -89.5 -69.5t-197 -28.5t-197 28.5t-89.5 69.5h-1v476h-2l46 115l-10 79q-3 23 15 36v14h37v-25l49 122v0q-10 0 -17.5 7t-7.5 17.5t7.5 17.5t17.5 7h293q10 0 17 -7t7 -17.5t-7 -17.5t-17 -7h9l40 -98v1h36v-12q23 -12 20 -38l-9 -69l50 -126v-475v0z
M301 683l4 -37l15 37h-19zM658 768h-263l-80 -209l21 -192q1 -13 12.5 -21.5t27.5 -8.5h293q15 0 27 8.5t13 21.5l23 208zM730 683l11 -27l3 27h-14zM777 459l-24 61l-3 -25l16 -37l-1 -408h1v-2.5v-3.5v-3q0 -38 -68.5 -64t-171.5 -26t-172 26t-69 64v9q2 4 4 4l4 -4
q0 -1 0.5 -4t0.5 -4q0 -30 67 -51.5t161 -21.5t158 21t64 51v408l-12 -103q-2 -12 -13.5 -20.5t-26.5 -8.5h-339q-15 0 -26.5 8.5t-13.5 20.5l-19 159l-18 -46h2v-432h1q6 -37 77.5 -62.5t171 -25.5t171 25.5t77.5 62.5h1v432z" />
    <glyph glyph-name="nainiu" unicode="&#xe630;" 
d="M211 628q-3 0 -3.5 -3t1 -3.5t6.5 -0.5q0 2 8 2q0 3 6 3q0 1 2.5 2.5t3.5 2.5q1 0 3 1t4 1q8 0 16 -1q4 -1 6 -4q2 0 4 -4q1 0 2 -2l1 -2q-3 -8 4 -9q2 0 7 -0.5t8 -1.5q11 -3 16 -3q7 -1 7 1q7 0 7 2q4 0 11 -0.5t11 -0.5q0 3 25 3q28 0 28 1q19 -2 109 -8q2 0 6 -1
t7 -1h8h8q1 0 5.5 -0.5t6.5 -0.5q3 0 9 -0.5t9 -0.5q0 -3 20 -3q0 -2 26 -4h29q1 0 5.5 0.5t7.5 0.5h4q2 0 4 0.5t3 0.5q5 0 13 1.5t11 1.5q21 2 34 4q2 0 7 1t8 2q1 0 6 0.5t8 1.5q18 5 26 5q0 1 9.5 1.5t9.5 1.5q4 0 21 2q15 1 15 -1q3 0 7 -1.5t7 -1.5q4 0 17.5 2
t17.5 -1q6 -1 8 -1q0 -3 6 -3q0 -1 8 -4q0 -2 7 -2q0 -1 4.5 -3.5t6.5 -2.5q0 -1 4.5 -3t6.5 -2q0 -1 2 -2t2 -2q1 0 3 -2.5t2 -3.5q3 0 2 -3q2 -1 3 -4q2 -7 4 -7q0 -6 3 -6q0 -8 3 -8q0 -5 1 -15t1 -13q1 -5 1 -29q2 -8 -1 -29q-3 -19 0 -61q-1 0 -1 -10q0 -2 -0.5 -4.5
t-0.5 -4.5t-0.5 -5t-0.5 -5q0 -3 -0.5 -6t-0.5 -4.5t0.5 -4.5t0.5 -5q0 -8 2 -8q0 -3 1 -9t1 -9q1 0 2 -6t2 -6q0 -2 1.5 -7t1.5 -8t1 -9t1 -10q1 0 1.5 -8t1.5 -8q2 -2 2 -7q0 -8 -3 -9q0 -4 -1 -11.5t-2 -11.5v-13.5v-13.5q0 -3 -1 -6t-1 -5q-1 -8 -3 -8q0 -3 -2 -7.5
t-2 -7.5q0 -1 -1 -3t-1 -3q0 -4 1 -9q2 -15 2 -17t1 -5.5t1 -5.5q0 -3 5 -15q-5 0 -10 -3.5t-4 -8.5q2 -1 0 -7q1 0 1 -0.5t1 -0.5q-2 -8 -15 -8l-23 -1h-3.5t-5 0.5t-3 2t1.5 3.5q4 7 4 8q5 4 7 6q7 7 11 14q2 0 1 8.5l-1 8.5q0 1 -0.5 3t-0.5 4v12q-1 20 -3 20v19
q0 1 -1 3.5t-1 4.5v5.5v4.5q0 3 -1.5 8.5t-1.5 8t-6 8.5q-1 1 -2 4l-1.5 4.5t-1.5 5t-2 5.5t-8 9q-6 5 -9 9q-1 2 -4 2q0 2 -3 5q0 4 -3 4q0 3 -2 5.5t-5 2.5q-7 0 -8.5 -2.5t-1.5 -6.5q2 0 1 -2.5t1 -2.5l3 -9q0 -2 2.5 -5.5t3.5 -6.5l1.5 -3.5t1.5 -5.5q0 -1 0.5 -2.5
l1 -3t0.5 -2.5q2 -5 1 -8q0 -1 -1 -2t-1 -3q-1 0 -2 -3.5t-2 -3.5q0 -1 -2 -4q-1 -2 -1 -3q-1 0 -3 -6q-3 -9 -5 -9q0 -2 -2 -5.5t-3 -3.5q-2 -9 -4 -9q0 -2 -2.5 -6t-2.5 -6q-1 0 -2.5 -5.5t-2.5 -5.5q0 -3 -2 -7.5t-2 -6.5q-1 -7 -4.5 -17t-5.5 -16l-2.5 -4.5t-2.5 -5.5
q-1 -4 3 -15q-1 0 -4 -0.5t-4 -0.5q-7 2 -9 0q-1 0 1 -7v-6q0 -1 -0.5 -2.5l-0.5 -1.5q-2 -1 -5 -3t-5 -3q-1 0 -4 -0.5t-4 -0.5q-2 -1 -2.5 -2t-2.5 -1l-1 -1q0 -1 -3 -1h-8q-5 0 -5 2h-2q-2 1 -3 1q-3 3 -2.5 5.5t3 6.5t2.5 6q1 0 2.5 3t2.5 3q2 2 2 3q4 1 7 4q2 1 9 8
q3 2 4 9q1 3 2 8.5t2 8.5q1 0 1.5 2t0.5 4t1 2q0 2 1.5 4.5t1.5 5.5q2 0 3 5q4 11 4 12q4 15 5 18q5 17 2 30q0 2 -1.5 11t-2.5 9q0 18 -3 18q-3 6 -4 6q-3 0 -3 0.5t-1.5 -3l-1.5 -3.5q-3 -6 -6 -8q-3 -1 -4.5 2t-1.5 11q0 4 -7 7q-4 1 -6 -2q-1 -3 -4 -2q-3 0 -3 4
l0.5 4.5t-0.5 6t-4 2.5q-2 0 -7 -0.5t-6 -0.5q-5 -1 -6 -2q-1 -2 -1 -8q0 -2 -1 -5t-2 -4q-2 -7 -5 2q-2 4 -2 16q0 1 -1 2t-1 2q-2 0 -4 2t-4 2q-3 1 -5 4q-2 0 -3 2q-1 0 -3 3q-2 0 -3 1.5t-3 1.5q-1 1 -3.5 3t-3.5 4q-5 5 -7 5q-1 0 -3.5 0.5t-3.5 0.5q-3 1 -6 -1t-5 -2
q0 -1 -5 -1q0 -1 -9 -3q0 -4 -42 -4q-2 0 -8 1t-9 1q-1 0 -3.5 -1t-5.5 -1q-9 0 -13 -1q0 1 -6 1q0 1 -2 2t-3 2q-2 3 -5 3q-2 3 -5 4q-5 1 -7 1h-10q-3 0 -9 1t-9 1q-6 0 -17.5 0.5t-18.5 0.5t-17 -1t-18 -4q-2 0 -4.5 -1t-4.5 -1q-1 0 -3 -0.5t-3 -0.5q-4 -1 -6 -3v-15
q0 -3 -0.5 -8.5t-1.5 -8.5q0 -33 -1 -38q-1 0 -3 -10q-1 -5 2 -6q0 -6 3 -6q-1 -3 -1.5 -9t-0.5 -9q2 0 2 -5q1 0 2 -11q5 -14 5 -26v-14q0 -4 -4.5 -6t-0.5 -7q3 -4 3 -10q-1 0 -2 -3t-2 -3q-2 -1 -2 -3q-2 0 -4 -3q-1 0 -3 -2t-4 -2q-1 -2 -6 -4q-1 0 -2 -0.5t-2 -0.5
q-3 0 -7 1q-2 1 -6 1t-6 1t-3 4q1 0 2 3t2 3q0 2 1 5.5t3 3.5q0 1 1.5 3.5l1.5 2.5q0 5 5 7q0 2 2 4v7v16q3 18 0 31q-2 9 -3 23q0 5 -2 9.5t-7 11.5t-6 8q-3 0 -5 -1q-3 -4 -4 -4q0 -1 -1.5 -3.5l-1.5 -2.5q0 -2 -1 -4.5t-1 -3.5q0 -2 -1 -6t-1 -5q0 -5 -1 -13t-1 -13
q0 -2 -0.5 -6.5t-0.5 -6.5t-0.5 -5.5t-0.5 -5.5q-2 0 -2 -3t-1 -3q0 -8 -3 -8q0 -1 -1 -3.5t-1 -4.5q-1 0 -3 -8l-3 -9q0 -2 -9 -4q-16 -6 -25 -4q-10 2 -10 3q-2 1 2 6q0 1 1.5 3.5l1.5 2.5q1 3 3 4q1 3 3 5q0 2 9 10q4 4 4 9q3 0 3 8q1 0 0.5 1.5t1.5 1.5v5q3 0 2 2
q2 0 2.5 3.5t1.5 3.5q0 3 0.5 7.5t0.5 5.5q0 10 2 10q0 3 0.5 6.5t0.5 5.5q0 11 2 11q0 2 -0.5 5.5t-0.5 6.5q-4 0 -3 19q0 2 1 7.5t0.5 9t-2.5 5.5q-3 2 -8 2h-3h-3q-2 0 -3 0.5t-2 0.5q-2 0 -4.5 1t-3.5 1q0 1 -3.5 1.5t-3.5 1.5q-5 0 -5 3q-2 0 -2 0.5t-2 0.5
q-1 1 -2.5 2t-2 2t-2 1.5t-2.5 2.5l-5 5t-1.5 2.5t-2 2.5t-2 2t-1.5 2t-2.5 3t-1.5 4q-2 1 -3 4q-2 2 -2 5q-1 0 -3.5 4.5t-2.5 6.5q-2 0 -2 5q-1 0 -2.5 3t-1.5 4q-1 0 -1.5 3.5t-2.5 3.5q0 7 -2 7q-1 4 -4 11t-5 11q0 2 -1.5 4.5t-2.5 3.5l-2.5 7.5t-2.5 6.5
q-1 0 -1.5 3.5t-1.5 3.5q0 1 -1.5 4.5t-2.5 3.5q0 5 -3 7q-1 3 -2 5q-3 2 -3 4q-3 3 -6 5q0 2 -3 4q0 2 -3 4q0 1 -1 3t-1 3q-2 1 -2 2t-2 1q0 2 -1 3t-1 2q-1 2 -2.5 4t-2.5 4q-1 6 -3 6q0 2 -1.5 5.5t-1.5 4.5q-4 3 -4 5l-4 3q-2 0 -4.5 3t-3.5 3q-4 2 -9 3q-3 0 -5.5 -1
t-3.5 -1q-9 -1 -19 1q-8 2 -20 0l-3 -0.5t-5 -0.5q-5 0 -9 -3q-6 -7 -17 -4q-2 1 -5.5 1t-4.5 1q-3 1 -7.5 1.5t-5.5 1.5q-8 1 -10 4q0 1 -0.5 1.5t-0.5 2.5q1 3 -2 3q-2 0 -1 2q2 0 3 2t1.5 6t0.5 5q1 5 4 5l6 6l6 6q2 1 5 3.5t5 5t3 4.5q0 1 5 5q0 1 1 2.5t1 2.5q3 0 3 5
q2 0 2 3q1 0 2 3.5t2 3.5q0 2 1 6t0 7q-1 7 -4 10q-4 3 -5 3q-5 1 -6 4q-1 0 -6 4q-1 0 -1.5 2.5t-1.5 2.5q0 1 -1.5 5.5t-1.5 6.5q-2 0 -3 4l5 3q0 1 2 1.5t2 1.5q2 0 3.5 0.5t2.5 0.5q3 0 8 -1q1 -1 8 -1q2 0 3.5 -0.5t2.5 -1.5q0 -1 8 -1q1 0 6 1q4 1 4 2q5 5 5 8
q0 2 -2 3t-2 3q-1 0 -3 1.5t-3 1.5q-5 2 -6 4q7 2 12 1q11 -4 14 -3q20 7 23 7q8 0 8 2h4q1 0 1 1t1 1q0 -1 4 -2q0 -1 2 -2q5 -2 8 7q1 -1 2.5 -4t3.5 -4q1 0 3 -1.5t3 -1.5q0 -1 2 -2.5t2 -2.5q3 -2 3 -11q2 0 3 -4q0 -1 0.5 -4t0.5 -5v0z" />
    <glyph glyph-name="ok-copy" unicode="&#xe603;" 
d="M512 778q-107 0 -198 -52.5t-143.5 -143.5t-52.5 -198t52.5 -198t143.5 -143.5t198 -52.5t198 52.5t143.5 143.5t52.5 198t-52.5 198t-143.5 143.5t-198 52.5zM470 183l-207 209l65 64l142 -143l257 255l64 -65z" />
    <glyph glyph-name="chicken" unicode="&#xe69b;" 
d="M803 436q9 -16 -10.5 -47t-44.5 -40q4 -35 -7.5 -67t-30.5 -53t-42.5 -38t-38.5 -24t-23 -9q-2 -1 -5 -2l5 -15t5.5 -15.5t2.5 -7.5q2 -5 5.5 -10t4.5 -8q2 -3 2 -9t2 -10q6 -13 25 -22q13 -6 17 -12q4 -5 1 -9q-1 3 -8 6.5t-14 5.5l-6 2q1 -2 2.5 -5.5t3.5 -10.5t1 -9
q0 -4 -14.5 -10t-16.5 -11q-1 -4 -1 -14q-9 7 -13 15q-2 7 -0.5 11.5t4.5 6.5l3 2q-11 -2 -19 -5q-7 0 -19.5 -5t-15.5 -6l-22 -1q-1 0 -2 -1t-3.5 -4t-2.5 -8q-10 12 -4 21q7 10 25 13q8 2 13 1q3 -1 10 2t12.5 6l5.5 3q-15 -3 -27 -7q-9 0 -10 1q-3 -1 -3.5 -2t-3.5 -2v5
q2 7 12 10q7 2 14 3q5 1 20 2t18 2q1 0 -3 14t-11 32q-2 5 -9.5 24.5t-10.5 26.5q-7 0 -24.5 -1.5t-24.5 -2.5q-9 -14 -15 -34q-4 -12 -16 -15q-2 -16 -4 -33q-1 -3 -0.5 -9t0.5 -9t-2.5 -8t-3.5 -9q0 -13 14 -27q9 -9 10 -16q1 -5 -4 -8q1 7 -20 21q-1 -20 -7 -23
q-1 -3 -18.5 -4t-22.5 -5l-8 -11q-1 1 -2 2.5t-2 6t-1 7.5q1 6 5.5 9.5t8.5 4.5l3 1l-22 2q-6 1 -20 1h-19t-10.5 1.5t-8.5 2.5l-3 1q-11 1 -15 -8q-4 13 7 19t31 4q9 -2 13 -4q4 -1 11.5 -0.5t14.5 0.5l8 1l-30 2q-10 3 -10 4q-3 1 -4.5 0t-4.5 -1q1 2 3 4q5 6 17 5
q7 0 16 -1q5 -1 20 -4.5t19 -4.5q4 0 11 44q1 6 2 20.5t2 19.5q-13 -5 -23 -1t-14 28q-3 20 -13 35t-17.5 21.5t-25.5 20.5q-45 17 -83 49q-34 30 -49 60t-15 63.5t7 76.5q3 19 11.5 62.5t12.5 70t3 42.5q-3 -6 -19 -9q-8 -2 -12.5 2.5t-8 12.5t-5.5 10q-3 3 -4 7t-1 7v3
q-23 5 -34 1q-1 2 1 8.5t8 13.5t16 8q-12 5 -10.5 22t10.5 25q2 2 6.5 1.5t5.5 0t-1 9.5q-2 10 14 12q4 1 8 -4q3 -6 3 -1v7q-1 8 8 13q7 4 10 -4q2 -6 4 0v1q3 7 9 10.5t12 -2.5q2 -2 6.5 -0.5t10 -0.5t6.5 -10q3 -19 -2 -34q3 -1 7 -3q2 -1 9.5 -5.5t12.5 -5.5
q21 -7 45 -41t27 -67q13 -61 35 -81q16 -9 44 -10t56 3.5t58 7t48 -0.5q14 9 30 30.5t25.5 41.5t19.5 42.5t11 23.5q9 16 22 23q19 11 27.5 -13t-0.5 -40q18 16 34 12q7 -11 7 -24.5t-5 -23.5q16 7 27 1q5 -12 0.5 -32.5t-14.5 -32.5q15 10 15 12q10 -19 -16 -66.5
t-59 -54.5q25 -1 32 6z" />
    <glyph glyph-name="yangjiao6" unicode="&#xe604;" horiz-adv-x="1034" 
d="M517 132l-27 50q-93 193 -89 261q0 2 1 3q2 22 -5 41t-19.5 30t-26 19.5t-24.5 8.5t-15 -2q-8 -10 -12 39l-1 29q-4 7 -10 18t-25.5 38.5t-37.5 47t-42.5 31.5t-45.5 4q-33 -14 -39 -64.5t6.5 -100t29.5 -75.5q12 -18 28 -43t25.5 -39.5t13.5 -18.5l-43 30
q-136 108 -149 187l-4.5 36t-4 35.5t-1.5 37.5t3 35t8 34t15.5 29t23 26t33.5 19t45 13q55 10 101.5 0.5t80 -35.5t57 -52.5t50.5 -61t45 -50.5q14 -13 28.5 -15.5t19.5 0.5t8 -2zM517 132l26 50q94 194 89 262v2q-3 22 4.5 41t19.5 30t26 19.5t24.5 8.5t14.5 -2
q9 -10 12 39l2 29q3 7 9.5 18t25.5 38.5t37.5 47t43 31.5t44.5 4q34 -14 40 -64.5t-6.5 -100t-30.5 -75.5q-12 -18 -27.5 -43t-25 -39.5t-14.5 -18.5l43 30q137 108 149 187q4 24 5.5 36t3.5 35.5t1.5 37.5t-3 35t-8 34t-15 29t-23.5 26t-33.5 19t-44.5 13q-56 10 -102 0.5
t-79.5 -35.5t-57.5 -52.5t-51 -61t-45 -50.5q-13 -13 -27.5 -15.5t-19 0.5t-6.5 -2zM304 494q1 -3 2.5 -8t6 -18t9.5 -22.5t12 -17t14 -5.5q13 2 12 15t-7.5 26.5t-13.5 21.5q-5 6 -14 7t-14 0t-7 1zM716 494q0 -3 -1.5 -8t-6 -18t-9.5 -22.5t-12.5 -17t-14.5 -5.5
q-12 2 -11 15t7.5 26.5t12.5 21.5q5 6 14 7t14 0t7 1zM53 42q5 -1 13 -3t31.5 -6t45.5 -5.5t49 2t47 12.5t35 29t17 49q12 143 2 226v0l94 -191q34 -75 32 -83l2 -12q14 -29 97 -20v-168q-5 5 -14 13t-30.5 31.5t-38 44t-29.5 43.5t-12 37h-18l-13 -13t-30 -28t-42.5 -34.5
t-45 -24t-41.5 -4.5q-57 17 -151 105zM983 42q-5 -1 -13 -3t-32 -6t-46 -5.5t-49 2t-46.5 12.5t-34.5 29t-18 49q-5 63 -5.5 119.5t2.5 81.5l2 25l-94 -191q-35 -75 -33 -83l-1 -12q-14 -29 -97 -20v-168q5 5 13.5 13t30 31.5t38 44t29.5 43.5t12 37h19q4 -5 12 -13
t30.5 -28t43 -34.5t45 -24t41.5 -4.5q57 17 151 105z" />
    <glyph glyph-name="fantang" unicode="&#xe620;" 
d="M314 355q12 0 20 8t8 20v-267q0 11 -8 19.5t-20 8.5h404q-12 0 -20 -8.5t-8 -19.5v267q0 -11 8 -19.5t20 -8.5h-404zM718 407q10 0 17 -7t7 -17v-267q0 -11 -7 -18t-17 -7h-404q-10 0 -17 7.5t-7 17.5v267q0 10 7 17t17 7h404zM162 525v-489q0 -35 25 -60q24 -25 59 -25
h540q35 0 60 25q24 24 24 60v486v49l49 3q19 2 27 5q-2 -1 -4 -7q-1 -4 1 -7q-1 2 -6 7q-13 14 -42 32l-25 15v30v110q0 35 -24 60q-25 24 -60 24h-540q-34 0 -59 -25q-25 -24 -25 -59v-16v-7l-2 -7q4 13 -1 26v0l2 -9v0q1 -4 1 -8v-81v-31l-26 -15q-30 -17 -45 -32
q-6 -6 -8 -10q1 2 0 7q-2 6 -3 6q10 -4 32 -5l50 -2v-50zM109 525q-68 3 -77 38q-11 43 77 94v81v1v4v16q0 57 41 97q40 40 96 40h540q56 0 97 -40q40 -40 40 -97v-110q81 -50 70 -90q-8 -33 -70 -37v-486q0 -58 -40 -97q-40 -40 -97 -40h-540q-56 0 -96 40q-41 40 -41 97
v489zM874 508q-2 -2 -9 -6.5t-10 -7.5q-57 -42 -93 -33q-25 6 -66 37q-34 26 -48 26q-19 -3 -52 -29q-47 -36 -78 -36h-3h-4q-29 3 -73 38q-35 27 -50 27q-14 0 -50 -27q-46 -37 -77 -38h-4q-14 0 -29.5 6t-24.5 12.5t-24 17.5q-14 11 -21 16v-475q0 -37 26 -63t62 -26h540
q36 0 63 26q25 25 25 63v472zM927 36q0 -59 -42 -101q-41 -40 -99 -40h-540q-58 0 -99 41q-42 42 -42 100v475v97l81 -53q10 -6 25 -18q5 -4 7 -5q27 -21 39 -21q16 1 49 27q21 16 31 22q26 16 51 17q21 0 36.5 -7.5t45.5 -31.5q33 -25 47 -27l-6 -52v52h7q13 0 46 26
q25 19 40.5 27.5t35.5 11.5h4h4q21 0 35.5 -7t44.5 -29q7 -5 9 -7q24 -18 37 -21q12 -3 49 24q2 2 7 5t9 6l4 3l84 61v-103v-472zM159 765h714q-2 35 -24 56q-27 26 -63 26h-540q-36 0 -62 -26q-23 -22 -25 -56zM156 849q37 38 90 38h540q52 0 91 -38q32 -32 36 -81l2 -43
h-42h-714h-42l3 43q3 49 37 82zM136 660h761v-40h-761v40zM83 581q0 11 4 18.5t9.5 7.5t9 -7.5t3.5 -18.5t-3.5 -18.5t-9 -7.5t-9.5 7.5t-4 18.5zM923 581q0 11 4 18.5t9.5 7.5t9.5 -7.5t4 -18.5t-4 -18.5t-9.5 -7.5t-9.5 7.5t-4 18.5z" />
    <glyph glyph-name="doufu" unicode="&#xe60b;" 
d="M447 38q-5 0 -8 3q-4 3 -5 8h-2q-2 0 -5 -1h-2v0q-18 0 -90 53q-40 29 -126 96q-62 48 -72 55q-26 17 -39 64q-6 23 -8 43v3q10 71 -3 87q-5 3 -6 8q-2 12 10.5 24t42.5 27q23 12 49 22q31 27 186 93q18 20 106 64q45 23 86 41q2 1 4 1h2q37 0 187 -79q74 -38 141 -77
q7 -4 6 -13q0 -2 -1 -8q-4 -9 -1.5 -17.5t14.5 -14.5q16 -8 21 -42q4 -23 3 -59q0 -41 -5 -79q-1 -6 -6 -10l-473 -290q-3 -2 -6 -2v0zM432 74q13 0 20 -5l455 280q4 37 5 70q1 72 -11 79q-34 18 -27 57q-68 39 -132 73q-139 73 -174 75q-58 -26 -114.5 -55.5t-67.5 -43.5
q-2 -2 -5 -3q-159 -68 -182 -91q-2 -2 -4 -3q-22 -8 -44 -19q-32 -16 -42 -26q4 -6 6 -15q9 -30 1 -87q2 -23 10.5 -50t24.5 -37q11 -7 73 -56q84 -65 123 -93q64 -47 78 -50h7v0zM439 48h-1q-5 1 -8.5 4.5t-3.5 9.5q6 166 -12 203l-1 2q-6 15 -86 61q-43 25 -82 44
q-3 1 -5 4q-7 11 -39.5 28.5t-65.5 30.5q-12 5 -7.5 17t16.5 7q25 -10 51 -23q51 -25 65 -43q42 -21 80 -43q87 -50 97 -73q6 -11 10 -42q9 -61 5 -174q-1 -5 -4.5 -9t-8.5 -4v0zM425 259q-6 0 -10 5q-8 10 3 18q24 18 153 93q7 10 35 27q24 15 64 35q43 21 89 42
q25 22 114 73q11 6 17.5 -5t-5.5 -18q-90 -51 -110 -70l-4 -2q-43 -20 -85 -41q-84 -42 -94 -55q-1 -4 -5 -6q-130 -76 -154 -93q-3 -3 -8 -3zM528 389q-5 0 -8 3q-75 61 -165 98q-45 18 -75 25q-12 2 -9.5 14.5t14.5 10.5q32 -7 79 -26q94 -39 172 -102q10 -8 2 -18
q-4 -5 -10 -5zM740 489q-4 0 -7 2q-32 24 -73 44t-73 31.5t-65.5 21t-45.5 12t-18 3.5t-9 5t-2 9.5t5.5 8.5t9.5 2q41 -7 98 -25q112 -36 188 -91q10 -8 3 -18q-4 -5 -11 -5zM251 370q-7 0 -11 6q-7 11 4 18q130 81 216.5 129t121 63t88.5 35l18 6q12 5 16.5 -7t-7.5 -17
q-7 -2 -18 -6q-53 -20 -87.5 -35t-120 -62.5t-213.5 -127.5q-3 -2 -7 -2z" />
    <glyph glyph-name="quxiao1" unicode="&#xe6d2;" 
d="M512 800q-173 0 -294.5 -121.5t-121.5 -294.5t121.5 -294.5t294.5 -121.5t294.5 121.5t121.5 294.5t-121.5 294.5t-294.5 121.5zM512 0q-160 0 -272 112t-112 272t112 272t272 112t272 -112t112 -272t-112 -272t-272 -112zM541 376l158 160q11 11 0 22.5t-22 -0.5
l-159 -160l-169 172q-11 11 -22.5 -0.5t-0.5 -22.5l170 -171l-170 -171q-11 -11 0.5 -22.5t22.5 -0.5l169 172l159 -160q11 -12 22 -0.5t0 22.5z" />
    <glyph glyph-name="lianxidizhi" unicode="&#xe609;" 
d="M511 -15q-81 0 -156 31q-71 31 -126.5 86t-85.5 127q-31 74 -31 155t31 156q30 71 85.5 126.5t126.5 85.5q75 31 156 31t155 -31q72 -30 127 -85.5t85 -126.5q32 -75 32 -156t-32 -155q-30 -72 -85 -127t-127 -86q-74 -31 -155 -31zM511 758q-76 0 -146 -29
q-67 -29 -118.5 -80.5t-80.5 -118.5q-29 -70 -29 -146t29 -145q29 -67 80.5 -119t118.5 -80q70 -30 146 -30t145 30q67 28 119 80t80 119q30 69 30 145t-30 146q-28 67 -80 118.5t-119 80.5q-69 29 -145 29zM464 194q19 -21 46 -21q28 0 46 21q33 34 65 80q68 94 68 154
q0 35 -14 68q-14 31 -38 55q-25 24 -57 38q-33 13 -69.5 13t-69.5 -13q-33 -14 -57.5 -38t-38.5 -55q-14 -33 -14 -68q0 -60 68 -154q32 -45 65 -80zM441 432q0 29 21 49.5t50.5 20.5t50.5 -20.5t21 -49t-21 -49.5t-50.5 -21t-50.5 20.5t-21 49.5z" />
    <glyph glyph-name="lianxiren" unicode="&#xe605;" 
d="M891 -25q0 -8 -6 -14t-14 -6h-765q-8 0 -14 6.5t-6 15.5q5 81 67 131q35 28 117 60q31 12 46 19t32 19t23 25q2 23 1 61v10q-14 13 -26.5 39.5t-17.5 52.5q-10 5 -18 15q-15 19 -19 55q-4 30 13 50q-37 154 21 231q50 65 161 67h1q74 0 104 -37q51 -10 78 -52
q28 -45 22 -122q-4 -43 -17 -87q16 -21 13 -50q-5 -36 -20 -55q-7 -10 -17 -15q-6 -27 -19 -55q-12 -25 -25 -37v-5v-5q0 -38 2 -61q5 -13 22 -25t32 -19t46 -19q33 -13 51.5 -21.5t45.5 -25.5t44 -37q6 -7 5.5 -15t-7 -13.5t-15 -5t-13.5 7.5q-14 16 -37.5 31t-40 22
t-48.5 20q-27 11 -41 17t-34 17t-31.5 24.5t-17.5 30.5q-1 2 -1 5q-3 26 -2 67v9.5v9.5q0 12 10 18q8 5 20.5 31t15.5 52q0 7 5.5 12t12.5 5q2 1 4.5 3.5t6.5 12t6 23.5q2 16 -6 22v0q-14 9 -9 24q9 27 14.5 58.5t4 69t-16.5 60.5q-18 29 -58 35q-10 1 -15 10q-14 25 -74 25
q-92 -1 -130 -51q-25 -33 -27 -88q-2 -51 16 -120q3 -15 -9 -23v0q-8 -7 -6 -22q1 -14 5 -23.5t7 -12t5 -3.5q7 0 12 -5t6 -12q3 -26 15.5 -52t20.5 -31q10 -6 10 -18v-9.5v-8.5q1 -42 -2 -68q0 -3 -1 -6q-6 -16 -17.5 -29.5t-31.5 -24.5t-34 -17t-41 -17q-77 -30 -107 -55
q-40 -32 -49 -80h742q8 0 14 -6t6 -15v0zM891 -25z" />
    <glyph glyph-name="jidanyijindayue" unicode="&#xe636;" 
d="M370.5 340q-5.5 0 -9.5 4t-4 10q0 72 37 138q38 69 95 91q12 5 17 -7.5t-7 -17.5q-49 -19 -82.5 -78.5t-33.5 -125.5q0 -6 -3.5 -10t-9 -4zM519.5 76q-95.5 0 -162.5 81q-67 79 -67 191q0 114 66 209q32 46 72 72q44 29 91.5 29t91.5 -29q40 -26 72 -72q66 -95 66 -209
q0 -112 -66 -191q-68 -81 -163.5 -81zM519.5 631q-39.5 0 -76.5 -24q-36 -23 -65 -65q-29 -41 -45 -93t-16 -101q0 -102 59.5 -173.5t143 -71.5t143 71.5t59.5 173.5q0 49 -16 101t-45 93q-29 42 -65 65q-37 24 -76.5 24zM363 150q-32 -13 -65 -13q-84 0 -143.5 71.5
t-59.5 173.5q0 50 16.5 101.5t44.5 92.5q29 42 65 65q38 24 77.5 24t76.5 -24q17 -11 33 -27q10 9 20 15l1 0.5l1 0.5q-19 20 -41 33q-44 29 -91 29t-91 -29q-41 -26 -73 -72q-65 -95 -65 -209q0 -112 66 -191q67 -81 163 -81q44 0 85 19q-11 10 -20 21zM890 591
q-32 46 -73 72q-44 29 -91 29t-91 -29q-18 -11 -35 -27q6 -3 11 -7l12 -8q13 11 26 20q37 24 76.5 24t77.5 -24q36 -23 65 -65q28 -41 44.5 -92.5t16.5 -101.5q0 -102 -59.5 -173.5t-143.5 -71.5q-27 0 -53 8q-11 -11 -22 -20q36 -15 75 -15q96 0 163 81q66 79 66 191
q0 114 -65 209z" />
  </font>
</defs>
</svg>
